<svg width="23" height="21" viewBox="0 0 23 21" fill="none" xmlns="http://www.w3.org/2000/svg">
<path d="M13.6562 13.7813H9.34375C8.77188 13.7813 8.22343 13.9887 7.81905 14.3579C7.41468 14.7271 7.1875 15.2279 7.1875 15.75V17.0625H8.625V15.75C8.625 15.576 8.70073 15.409 8.83552 15.286C8.97031 15.1629 9.15313 15.0938 9.34375 15.0938H13.6562C13.8469 15.0938 14.0297 15.1629 14.1645 15.286C14.2993 15.409 14.375 15.576 14.375 15.75V17.0625H15.8125V15.75C15.8125 15.2279 15.5853 14.7271 15.1809 14.3579C14.7766 13.9887 14.2281 13.7813 13.6562 13.7813ZM11.5 13.125C12.0686 13.125 12.6245 12.971 13.0973 12.6826C13.5701 12.3942 13.9386 11.9842 14.1562 11.5045C14.3738 11.0249 14.4307 10.4971 14.3198 9.98789C14.2088 9.47869 13.935 9.01096 13.5329 8.64385C13.1309 8.27673 12.6186 8.02673 12.0609 7.92544C11.5032 7.82415 10.9251 7.87614 10.3998 8.07482C9.87445 8.2735 9.42543 8.60995 9.10953 9.04163C8.79362 9.47331 8.625 9.98083 8.625 10.5C8.625 11.1962 8.9279 11.8639 9.46707 12.3562C10.0062 12.8484 10.7375 13.125 11.5 13.125ZM11.5 9.1875C11.7843 9.1875 12.0622 9.26448 12.2986 9.4087C12.535 9.55292 12.7193 9.7579 12.8281 9.99773C12.9369 10.2376 12.9653 10.5015 12.9099 10.7561C12.8544 11.0107 12.7175 11.2445 12.5165 11.4281C12.3154 11.6116 12.0593 11.7366 11.7804 11.7873C11.5016 11.8379 11.2126 11.8119 10.9499 11.7126C10.6872 11.6133 10.4627 11.445 10.3048 11.2292C10.1468 11.0133 10.0625 10.7596 10.0625 10.5C10.0625 10.1519 10.214 9.81807 10.4835 9.57192C10.7531 9.32578 11.1188 9.1875 11.5 9.1875Z" fill="white"/>
<path d="M17.9688 3.28125H15.8125V2.625C15.8125 2.2769 15.661 1.94306 15.3915 1.69692C15.1219 1.45078 14.7562 1.3125 14.375 1.3125H8.625C8.24375 1.3125 7.87812 1.45078 7.60853 1.69692C7.33895 1.94306 7.1875 2.2769 7.1875 2.625V3.28125H5.03125C4.65 3.28125 4.28437 3.41953 4.01478 3.66567C3.7452 3.91181 3.59375 4.24565 3.59375 4.59375V18.375C3.59375 18.7231 3.7452 19.0569 4.01478 19.3031C4.28437 19.5492 4.65 19.6875 5.03125 19.6875H17.9688C18.35 19.6875 18.7156 19.5492 18.9852 19.3031C19.2548 19.0569 19.4062 18.7231 19.4062 18.375V4.59375C19.4062 4.24565 19.2548 3.91181 18.9852 3.66567C18.7156 3.41953 18.35 3.28125 17.9688 3.28125ZM8.625 2.625H14.375V5.25H8.625V2.625ZM17.9688 18.375H5.03125V4.59375H7.1875V6.5625H15.8125V4.59375H17.9688V18.375Z" fill="white"/>
</svg>
