<svg width="44" height="44" viewBox="0 0 44 44" fill="none" xmlns="http://www.w3.org/2000/svg">
<path d="M23.3204 19.7999C22.4404 19.5799 21.5604 19.1399 20.9004 18.4799C20.2404 18.2599 20.0204 17.5999 20.0204 17.1599C20.0204 16.7199 20.2404 16.0599 20.6804 15.8399C21.3404 15.3999 22.0004 14.9599 22.6604 15.1799C23.9804 15.1799 25.0804 15.8399 25.7404 16.7199L27.7204 14.0799C27.0604 13.4199 26.4004 12.9799 25.7404 12.5399C25.0804 12.0999 24.2004 11.8799 23.3204 11.8799V8.7999H20.6804V11.8799C19.5804 12.0999 18.4804 12.7599 17.6004 13.6399C16.7204 14.7399 16.0604 16.0599 16.2804 17.3799C16.2804 18.6999 16.7204 20.0199 17.6004 20.8999C18.7004 21.9999 20.2404 22.6599 21.5604 23.3199C22.2204 23.5399 23.1004 23.9799 23.7604 24.4199C24.2004 24.8599 24.4204 25.5199 24.4204 26.1799C24.4204 26.8399 24.2004 27.4999 23.7604 28.1599C23.1004 28.8199 22.2204 29.0399 21.5604 29.0399C20.6804 29.0399 19.5804 28.8199 18.9204 28.1599C18.2604 27.7199 17.6004 27.0599 17.1604 26.3999L14.9604 28.8199C15.6204 29.6999 16.2804 30.3599 17.1604 31.0199C18.2604 31.6799 19.5804 32.3399 20.9004 32.3399V35.1999H23.3204V31.8999C24.6404 31.6799 25.7404 31.0199 26.6204 30.1399C27.7204 29.0399 28.3804 27.2799 28.3804 25.7399C28.3804 24.4199 27.9404 22.8799 26.8404 21.9999C25.7404 20.8999 24.6404 20.2399 23.3204 19.7999ZM22.0004 4.3999C12.3204 4.3999 4.40039 12.3199 4.40039 21.9999C4.40039 31.6799 12.3204 39.5999 22.0004 39.5999C31.6804 39.5999 39.6004 31.6799 39.6004 21.9999C39.6004 12.3199 31.6804 4.3999 22.0004 4.3999ZM22.0004 37.1799C13.6404 37.1799 6.82039 30.3599 6.82039 21.9999C6.82039 13.6399 13.6404 6.8199 22.0004 6.8199C30.3604 6.8199 37.1804 13.6399 37.1804 21.9999C37.1804 30.3599 30.3604 37.1799 22.0004 37.1799Z" fill="url(#paint0_linear_463_1683)"/>
<defs>
<linearGradient id="paint0_linear_463_1683" x1="22.0004" y1="4.3999" x2="22.0004" y2="39.5999" gradientUnits="userSpaceOnUse">
<stop stop-color="#727DCD"/>
<stop offset="1" stop-color="#58E1FF"/>
</linearGradient>
</defs>
</svg>
