<svg width="18" height="17" viewBox="0 0 18 17" fill="none" xmlns="http://www.w3.org/2000/svg">
<path d="M6.27127 0.559039C4.47279 1.14829 2.92178 2.2667 1.84607 3.74999C0.770355 5.23329 0.226633 7.00329 0.294767 8.80001C0.362901 10.5967 1.0393 12.3255 2.22461 13.7323C3.40992 15.1391 5.04167 16.1498 6.88018 16.6161C8.37069 16.9793 9.93231 16.9953 11.4308 16.6626C12.7883 16.3746 14.0433 15.7586 15.073 14.8749C16.1447 13.9271 16.9225 12.7213 17.323 11.3872C17.7581 9.93647 17.8356 8.41083 17.5494 6.9274H9.17939V10.2065H14.0267C13.9299 10.7295 13.7223 11.2287 13.4164 11.6742C13.1105 12.1196 12.7125 12.5022 12.2464 12.799C11.6546 13.169 10.9873 13.4178 10.2875 13.5295C9.58573 13.6528 8.86588 13.6528 8.16408 13.5295C7.45273 13.3908 6.77983 13.1135 6.1883 12.7154C5.23788 12.08 4.52425 11.1773 4.14924 10.1361C3.76799 9.07548 3.76799 7.92564 4.14924 6.86498C4.41618 6.12151 4.85747 5.44459 5.44018 4.88474C6.10701 4.2323 6.95124 3.76593 7.88024 3.5368C8.80924 3.30767 9.78712 3.32463 10.7066 3.58584C11.4249 3.79398 12.0817 4.15783 12.6247 4.64834C13.1713 4.13479 13.7169 3.61992 14.2616 3.10373C14.5428 2.82615 14.8494 2.56185 15.1264 2.27763C14.2975 1.54918 13.3245 0.982318 12.2633 0.609508C10.3307 -0.0532402 8.21608 -0.0710509 6.27127 0.559039Z" fill="white"/>
<path d="M6.27102 0.559196C8.21567 -0.071322 10.3303 -0.0539801 12.263 0.608337C13.3245 0.983679 14.297 1.55327 15.1248 2.28443C14.8435 2.56865 14.5468 2.83427 14.2599 3.11052C13.7143 3.62495 13.1691 4.13761 12.6245 4.64849C12.0815 4.15799 11.4246 3.79414 10.7063 3.58599C9.78717 3.32388 8.80932 3.30593 7.88007 3.53412C6.95083 3.76231 6.10608 4.22782 5.43852 4.87959C4.85581 5.43944 4.41452 6.11636 4.14758 6.85982L1.23242 4.72818C2.27587 2.77393 4.08254 1.27907 6.27102 0.559196Z" fill="#E33629"/>
<path d="M0.457574 6.83975C0.614145 6.10632 0.874282 5.39607 1.23101 4.72803L4.14617 6.86498C3.76492 7.92565 3.76492 9.07549 4.14617 10.1362C3.17492 10.8445 2.2032 11.5564 1.23101 12.2718C0.338255 10.5934 0.0659794 8.68119 0.457574 6.83975Z" fill="#F8BD00"/>
<path d="M9.17836 6.92627H17.5484C17.8345 8.40971 17.7571 9.93534 17.322 11.3861C16.9215 12.7202 16.1436 13.9259 15.072 14.8738C14.1312 14.1805 13.1862 13.4925 12.2454 12.7992C12.7118 12.5021 13.1099 12.1191 13.4158 11.6732C13.7217 11.2272 13.9292 10.7276 14.0257 10.2041H9.17836C9.17695 9.11236 9.17836 8.01932 9.17836 6.92627Z" fill="#587DBD"/>
<path d="M1.23047 12.2719C2.20266 11.5635 3.17437 10.8516 4.14562 10.1362C4.52139 11.1777 5.23604 12.0805 6.1875 12.7154C6.78087 13.1117 7.45523 13.3867 8.1675 13.5229C8.8693 13.6462 9.58914 13.6462 10.2909 13.5229C10.9907 13.4112 11.658 13.1624 12.2498 12.7925C13.1906 13.4858 14.1356 14.1737 15.0764 14.867C14.0469 15.7512 12.7918 16.3676 11.4342 16.656C9.93573 16.9887 8.37411 16.9727 6.88359 16.6095C5.70474 16.3122 4.60361 15.7882 3.64922 15.0702C2.63915 14.3127 1.81411 13.3582 1.23047 12.2719Z" fill="#319F43"/>
</svg>
