<svg width="22" height="21" viewBox="0 0 22 21" fill="none" xmlns="http://www.w3.org/2000/svg">
<path d="M17.4173 3.5H4.58398C3.85464 3.5 3.15517 3.77656 2.63944 4.26884C2.12372 4.76113 1.83398 5.42881 1.83398 6.125V14.875C1.83398 15.5712 2.12372 16.2389 2.63944 16.7312C3.15517 17.2234 3.85464 17.5 4.58398 17.5H17.4173C18.1467 17.5 18.8461 17.2234 19.3619 16.7312C19.8776 16.2389 20.1673 15.5712 20.1673 14.875V6.125C20.1673 5.42881 19.8776 4.76113 19.3619 4.26884C18.8461 3.77656 18.1467 3.5 17.4173 3.5ZM16.8032 5.25L11.0007 9.40625L5.19815 5.25H16.8032ZM17.4173 15.75H4.58398C4.34087 15.75 4.10771 15.6578 3.9358 15.4937C3.7639 15.3296 3.66732 15.1071 3.66732 14.875V6.34375L10.4507 11.2C10.6093 11.3136 10.8023 11.375 11.0007 11.375C11.199 11.375 11.392 11.3136 11.5507 11.2L18.334 6.34375V14.875C18.334 15.1071 18.2374 15.3296 18.0655 15.4937C17.8936 15.6578 17.6604 15.75 17.4173 15.75Z" fill="url(#paint0_linear_463_1650)" fill-opacity="0.7"/>
<defs>
<linearGradient id="paint0_linear_463_1650" x1="11.0007" y1="3.5" x2="11.0007" y2="17.5" gradientUnits="userSpaceOnUse">
<stop stop-color="#727DCD"/>
<stop offset="1" stop-color="#58E1FF"/>
</linearGradient>
</defs>
</svg>
