<svg width="22" height="21" viewBox="0 0 22 21" fill="none" xmlns="http://www.w3.org/2000/svg">
<path d="M16.4173 4.37516H5.41728L6.60895 3.24641C6.78156 3.08165 6.87853 2.85818 6.87853 2.62516C6.87853 2.39215 6.78156 2.16868 6.60895 2.00391C6.43634 1.83915 6.20222 1.74658 5.95811 1.74658C5.714 1.74658 5.47989 1.83915 5.30728 2.00391L2.55728 4.62891C2.47136 4.71025 2.40317 4.80703 2.35663 4.91366C2.31009 5.02028 2.28613 5.13465 2.28613 5.25016C2.28613 5.36567 2.31009 5.48004 2.35663 5.58667C2.40317 5.69329 2.47136 5.79007 2.55728 5.87141L5.30728 8.49641C5.3925 8.57842 5.49388 8.64352 5.60559 8.68794C5.71729 8.73236 5.8371 8.75524 5.95811 8.75524C6.07913 8.75524 6.19894 8.73236 6.31064 8.68794C6.42235 8.64352 6.52373 8.57842 6.60895 8.49641C6.69487 8.41507 6.76306 8.31829 6.8096 8.21167C6.85614 8.10504 6.8801 7.99067 6.8801 7.87516C6.8801 7.75965 6.85614 7.64528 6.8096 7.53866C6.76306 7.43203 6.69487 7.33525 6.60895 7.25391L5.41728 6.12516H16.4173C16.6051 6.12168 16.7918 6.15355 16.9667 6.21895C17.1415 6.28435 17.3012 6.382 17.4366 6.50632C17.5719 6.63065 17.6803 6.7792 17.7555 6.94351C17.8307 7.10781 17.8712 7.28465 17.8748 7.46391V9.62516C17.8748 9.85723 17.9714 10.0798 18.1433 10.2439C18.3152 10.408 18.5483 10.5002 18.7914 10.5002C19.0346 10.5002 19.2677 10.408 19.4396 10.2439C19.6115 10.0798 19.7081 9.85723 19.7081 9.62516V7.46391C19.7045 7.05484 19.6165 6.65045 19.4492 6.27383C19.2819 5.89722 19.0385 5.55575 18.7329 5.26893C18.4273 4.98211 18.0655 4.75556 17.6682 4.6022C17.2709 4.44885 16.8458 4.3717 16.4173 4.37516ZM16.6923 12.5039C16.5197 12.3391 16.2856 12.2466 16.0414 12.2466C15.7973 12.2466 15.5632 12.3391 15.3906 12.5039C15.218 12.6687 15.121 12.8921 15.121 13.1252C15.121 13.3582 15.218 13.5816 15.3906 13.7464L16.5823 14.8752H5.58228C5.39448 14.8786 5.2078 14.8468 5.03291 14.7814C4.85802 14.716 4.69834 14.6183 4.56299 14.494C4.42764 14.3697 4.31928 14.2211 4.24409 14.0568C4.1689 13.8925 4.12836 13.7157 4.12478 13.5364V11.3752C4.12478 11.1431 4.0282 10.9205 3.8563 10.7564C3.68439 10.5923 3.45123 10.5002 3.20811 10.5002C2.965 10.5002 2.73184 10.5923 2.55993 10.7564C2.38803 10.9205 2.29145 11.1431 2.29145 11.3752V13.5364C2.29504 13.9455 2.38302 14.3499 2.55035 14.7265C2.71768 15.1031 2.96108 15.4446 3.26667 15.7314C3.57225 16.0182 3.93403 16.2448 4.33135 16.3981C4.72866 16.5515 5.15373 16.6286 5.58228 16.6252H16.5823L15.3906 17.7539C15.3047 17.8353 15.2365 17.932 15.19 18.0387C15.1434 18.1453 15.1195 18.2597 15.1195 18.3752C15.1195 18.4907 15.1434 18.605 15.19 18.7117C15.2365 18.8183 15.3047 18.9151 15.3906 18.9964C15.4758 19.0784 15.5772 19.1435 15.6889 19.1879C15.8006 19.2324 15.9204 19.2552 16.0414 19.2552C16.1625 19.2552 16.2823 19.2324 16.394 19.1879C16.5057 19.1435 16.6071 19.0784 16.6923 18.9964L19.4423 16.3714C19.5282 16.2901 19.5964 16.1933 19.6429 16.0867C19.6895 15.98 19.7134 15.8657 19.7134 15.7502C19.7134 15.6347 19.6895 15.5203 19.6429 15.4137C19.5964 15.307 19.5282 15.2103 19.4423 15.1289L16.6923 12.5039Z" fill="white"/>
</svg>
