<svg width="24" height="24" viewBox="0 0 24 24" fill="none" xmlns="http://www.w3.org/2000/svg">
<path d="M9.83637 2.03397C9.94837 2.07197 10.0584 2.11797 10.1654 2.16997L11.4484 2.80197C11.6201 2.8865 11.809 2.93046 12.0004 2.93046C12.1918 2.93046 12.3806 2.8865 12.5524 2.80197L13.8354 2.16997C14.4897 1.84813 15.245 1.79933 15.9353 2.0343C16.6256 2.26927 17.1943 2.76877 17.5164 3.42297L17.5904 3.58497L17.6534 3.75197L18.1134 5.10497C18.2384 5.47297 18.5274 5.76097 18.8944 5.88597L20.2484 6.34597C20.6187 6.47198 20.958 6.67557 21.2434 6.94313C21.5288 7.21069 21.7538 7.53607 21.9035 7.89754C22.0531 8.25901 22.1239 8.64824 22.1111 9.03925C22.0984 9.43026 22.0023 9.81405 21.8294 10.165L21.1984 11.448C21.1138 11.6197 21.0699 11.8086 21.0699 12C21.0699 12.1914 21.1138 12.3802 21.1984 12.552L21.8294 13.835C22.0021 14.1859 22.098 14.5695 22.1107 14.9604C22.1234 15.3513 22.0526 15.7404 21.903 16.1018C21.7533 16.4631 21.5283 16.7884 21.243 17.0559C20.9577 17.3234 20.6186 17.5269 20.2484 17.653L18.8944 18.113C18.7132 18.1748 18.5487 18.2773 18.4135 18.4127C18.2783 18.5481 18.1759 18.7128 18.1144 18.894L17.6534 20.248C17.5273 20.6182 17.3238 20.9573 17.0563 21.2426C16.7888 21.528 16.4635 21.7529 16.1022 21.9026C15.7408 22.0522 15.3517 22.123 14.9608 22.1103C14.5699 22.0976 14.1862 22.0017 13.8354 21.829L12.5524 21.198C12.3806 21.1134 12.1918 21.0695 12.0004 21.0695C11.809 21.0695 11.6201 21.1134 11.4484 21.198L10.1654 21.829C9.81449 22.0017 9.43079 22.0976 9.0399 22.1103C8.649 22.123 8.2599 22.0522 7.89855 21.9026C7.53721 21.7529 7.21193 21.528 6.94444 21.2426C6.67695 20.9573 6.4734 20.6182 6.34737 20.248L5.88737 18.894C5.82548 18.7127 5.72278 18.5482 5.58719 18.4129C5.4516 18.2777 5.28675 18.1754 5.10537 18.114L3.75237 17.653C3.38204 17.527 3.04284 17.3236 2.75741 17.0561C2.47198 16.7887 2.24688 16.4634 2.09715 16.1021C1.94742 15.7407 1.8765 15.3516 1.88913 14.9606C1.90175 14.5697 1.99763 14.1859 2.17037 13.835L2.80237 12.552C2.88689 12.3802 2.93085 12.1914 2.93085 12C2.93085 11.8086 2.88689 11.6197 2.80237 11.448L2.17037 10.165C1.99763 9.81403 1.90175 9.43027 1.88913 9.03933C1.8765 8.64838 1.94742 8.25924 2.09715 7.89788C2.24688 7.53652 2.47198 7.21127 2.75741 6.94382C3.04284 6.67638 3.38204 6.4729 3.75237 6.34697L5.10537 5.88697C5.28678 5.82521 5.45157 5.72257 5.58699 5.58698C5.72241 5.45138 5.82484 5.28646 5.88637 5.10497L6.34637 3.75197C6.46265 3.40996 6.64518 3.09421 6.88352 2.82277C7.12186 2.55132 7.41135 2.32949 7.73545 2.16994C8.05954 2.0104 8.4119 1.91628 8.77238 1.89295C9.13286 1.86962 9.49441 1.91754 9.83637 2.03397ZM15.4694 8.96897L10.0504 14.389L8.07637 12.019C8.01421 11.9406 7.93701 11.8755 7.84931 11.8274C7.76161 11.7794 7.66518 11.7493 7.5657 11.7391C7.46622 11.7288 7.3657 11.7386 7.27004 11.7678C7.17439 11.7969 7.08553 11.845 7.0087 11.909C6.93188 11.973 6.86863 12.0517 6.82268 12.1406C6.77674 12.2294 6.74902 12.3265 6.74116 12.4262C6.7333 12.5259 6.74546 12.6262 6.77693 12.7211C6.80839 12.816 6.85852 12.9037 6.92437 12.979L9.42437 15.979C9.49102 16.059 9.57362 16.1243 9.6669 16.1706C9.76017 16.217 9.86208 16.2434 9.96613 16.2482C10.0702 16.253 10.1741 16.2361 10.2712 16.1985C10.3684 16.1609 10.4566 16.1035 10.5304 16.03L16.5304 10.03C16.6041 9.96131 16.6632 9.87851 16.7041 9.78651C16.7451 9.69451 16.7672 9.5952 16.769 9.49449C16.7707 9.39379 16.7522 9.29376 16.7145 9.20037C16.6768 9.10699 16.6206 9.02215 16.5494 8.95093C16.4782 8.87971 16.3934 8.82357 16.3 8.78585C16.2066 8.74813 16.1065 8.7296 16.0058 8.73138C15.9051 8.73316 15.8058 8.7552 15.7138 8.79619C15.6218 8.83718 15.539 8.89628 15.4704 8.96997L15.4694 8.96897Z" fill="#727DCD"/>
</svg>
