<svg width="32" height="32" viewBox="0 0 32 32" fill="none" xmlns="http://www.w3.org/2000/svg">
<path d="M15.9994 2.6665C13.3623 2.6665 10.7844 3.44849 8.59175 4.91358C6.3991 6.37866 4.69013 8.46104 3.68096 10.8974C2.67179 13.3337 2.40775 16.0146 2.92222 18.601C3.43669 21.1875 4.70656 23.5632 6.57126 25.4279C8.43596 27.2926 10.8117 28.5625 13.3982 29.077C15.9846 29.5914 18.6655 29.3274 21.1018 28.3182C23.5381 27.3091 25.6205 25.6001 27.0856 23.4074C28.5507 21.2148 29.3327 18.6369 29.3327 15.9998C29.3327 14.2489 28.9878 12.5151 28.3177 10.8974C27.6477 9.27972 26.6656 7.80986 25.4274 6.57175C24.1893 5.33363 22.7195 4.35151 21.1018 3.68144C19.4841 3.01138 17.7503 2.6665 15.9994 2.6665ZM13.3327 21.9998V9.99984L21.3327 15.9998L13.3327 21.9998Z" fill="#FFF8F8"/>
</svg>
