<svg width="124" height="124" viewBox="0 0 124 124" fill="none" xmlns="http://www.w3.org/2000/svg">
<path d="M86.8002 49.5995C86.8002 56.1768 84.1873 62.4847 79.5364 67.1356C74.8855 71.7864 68.5776 74.3993 62.0002 74.3993C55.4228 74.3993 49.1148 71.7864 44.4639 67.1356C39.813 62.4847 37.2002 56.1768 37.2002 49.5995C37.2002 43.0222 39.813 36.7143 44.4639 32.0635C49.1148 27.4126 55.4228 24.7998 62.0002 24.7998C68.5776 24.7998 74.8855 27.4126 79.5364 32.0635C84.1873 36.7143 86.8002 43.0222 86.8002 49.5995Z" fill="#18130F"/>
<path fill-rule="evenodd" clip-rule="evenodd" d="M59.4704 123.949C26.4027 122.622 0 95.3922 0 61.9993C0 27.7571 27.7574 0 62 0C96.2426 0 124 27.7571 124 61.9993C124 96.2415 96.2426 123.999 62 123.999C61.7169 124 61.4337 124 61.1506 123.999C60.5895 123.999 60.0284 123.98 59.4704 123.949ZM22.2146 101.121C21.751 99.7897 21.5933 98.3711 21.753 96.9706C21.9127 95.5701 22.3857 94.2235 23.1371 93.0308C23.8884 91.8381 24.8988 90.83 26.0931 90.0812C27.2874 89.3324 28.635 88.8622 30.0359 88.7055C54.2035 86.0303 69.9453 86.272 93.9951 88.7613C95.3979 88.9074 96.7488 89.3717 97.945 90.1188C99.1413 90.8658 100.151 91.8761 100.898 93.0725C101.645 94.2689 102.109 95.6199 102.254 97.0227C102.4 98.4255 102.224 99.843 101.739 101.167C112.046 90.7388 117.818 76.662 117.8 61.9993C117.8 31.1826 92.8171 6.19993 62 6.19993C31.1829 6.19993 6.2 31.1826 6.2 61.9993C6.2 77.2387 12.3101 91.0522 22.2146 101.121Z" fill="#18130F"/>
</svg>
