<svg width="42" height="31" viewBox="0 0 42 31" fill="none" xmlns="http://www.w3.org/2000/svg">
<path d="M39.375 25.8333C39.375 26.5185 39.0984 27.1756 38.6062 27.66C38.1139 28.1445 37.4462 28.4167 36.75 28.4167H5.25C4.55381 28.4167 3.88613 28.1445 3.39384 27.66C2.90156 27.1756 2.625 26.5185 2.625 25.8333V10.3333C2.625 9.64819 2.90156 8.99111 3.39384 8.50664C3.88613 8.02217 4.55381 7.75 5.25 7.75H8.3265C10.414 7.74888 12.4156 6.93212 13.8915 5.47925L16.0703 3.34025C16.5611 2.85701 17.2266 2.58485 17.9209 2.58333H24.0739C24.77 2.58348 25.4376 2.85575 25.9298 3.34025L28.1033 5.47925C28.8347 6.19926 29.703 6.7704 30.6588 7.16002C31.6146 7.54964 32.639 7.75012 33.6735 7.75H36.75C37.4462 7.75 38.1139 8.02217 38.6062 8.50664C39.0984 8.99111 39.375 9.64819 39.375 10.3333V25.8333ZM5.25 5.16667C3.85761 5.16667 2.52226 5.71101 1.53769 6.67995C0.553124 7.64889 0 8.96305 0 10.3333L0 25.8333C0 27.2036 0.553124 28.5178 1.53769 29.4867C2.52226 30.4557 3.85761 31 5.25 31H36.75C38.1424 31 39.4777 30.4557 40.4623 29.4867C41.4469 28.5178 42 27.2036 42 25.8333V10.3333C42 8.96305 41.4469 7.64889 40.4623 6.67995C39.4777 5.71101 38.1424 5.16667 36.75 5.16667H33.6735C32.2812 5.16637 30.9461 4.62184 29.9617 3.65283L27.7883 1.51383C26.8039 0.544828 25.4688 0.000292627 24.0765 0H17.9235C16.5312 0.000292627 15.1961 0.544828 14.2118 1.51383L12.0382 3.65283C11.0539 4.62184 9.71877 5.16637 8.3265 5.16667H5.25Z" fill="url(#paint0_linear_463_1660)"/>
<path d="M21 23.25C19.2595 23.25 17.5903 22.5696 16.3596 21.3584C15.1289 20.1472 14.4375 18.5045 14.4375 16.7917C14.4375 15.0788 15.1289 13.4361 16.3596 12.2249C17.5903 11.0138 19.2595 10.3333 21 10.3333C22.7405 10.3333 24.4097 11.0138 25.6404 12.2249C26.8711 13.4361 27.5625 15.0788 27.5625 16.7917C27.5625 18.5045 26.8711 20.1472 25.6404 21.3584C24.4097 22.5696 22.7405 23.25 21 23.25ZM21 25.8333C23.4367 25.8333 25.7736 24.8807 27.4965 23.1851C29.2195 21.4894 30.1875 19.1897 30.1875 16.7917C30.1875 14.3937 29.2195 12.0939 27.4965 10.3982C25.7736 8.7026 23.4367 7.75 21 7.75C18.5633 7.75 16.2264 8.7026 14.5035 10.3982C12.7805 12.0939 11.8125 14.3937 11.8125 16.7917C11.8125 19.1897 12.7805 21.4894 14.5035 23.1851C16.2264 24.8807 18.5633 25.8333 21 25.8333ZM7.875 11.625C7.875 11.9676 7.73672 12.2961 7.49058 12.5383C7.24444 12.7806 6.9106 12.9167 6.5625 12.9167C6.2144 12.9167 5.88056 12.7806 5.63442 12.5383C5.38828 12.2961 5.25 11.9676 5.25 11.625C5.25 11.2824 5.38828 10.9539 5.63442 10.7117C5.88056 10.4694 6.2144 10.3333 6.5625 10.3333C6.9106 10.3333 7.24444 10.4694 7.49058 10.7117C7.73672 10.9539 7.875 11.2824 7.875 11.625Z" fill="url(#paint1_linear_463_1660)"/>
<defs>
<linearGradient id="paint0_linear_463_1660" x1="21" y1="0" x2="21" y2="31" gradientUnits="userSpaceOnUse">
<stop stop-color="#727DCD"/>
<stop offset="1" stop-color="#58E1FF"/>
</linearGradient>
<linearGradient id="paint1_linear_463_1660" x1="17.7188" y1="7.75" x2="17.7188" y2="25.8333" gradientUnits="userSpaceOnUse">
<stop stop-color="#727DCD"/>
<stop offset="1" stop-color="#58E1FF"/>
</linearGradient>
</defs>
</svg>
