<svg width="18" height="18" viewBox="0 0 18 18" fill="none" xmlns="http://www.w3.org/2000/svg">
<path d="M14.835 13.2047C13.6049 13.4982 12.3207 13.484 11.0974 13.1633C9.87413 12.8427 8.74999 12.2256 7.82564 11.3674C6.9013 10.5092 6.20561 9.43659 5.80087 8.24568C5.39613 7.05478 5.29497 5.78273 5.50646 4.54346C5.4743 4.57432 5.44034 4.60328 5.40476 4.63019C5.15276 4.82066 4.83776 4.8913 4.20775 5.03258L3.63625 5.16135C1.42222 5.65942 0.315214 5.90801 0.051512 6.74945C-0.21129 7.59 0.542917 8.46721 2.05223 10.2207L2.44283 10.6741C2.87124 11.1722 3.08634 11.4217 3.18264 11.7293C3.27894 12.0378 3.24654 12.3704 3.18174 13.0348L3.12234 13.6402C2.89464 15.9803 2.78034 17.1499 3.46974 17.6694C4.15915 18.1899 5.19596 17.7159 7.26778 16.7672L7.80508 16.5222C8.39369 16.2521 8.68799 16.118 9.00029 16.118C9.3126 16.118 9.6069 16.2521 10.1964 16.5222L10.7319 16.7672C12.8046 17.715 13.8414 18.189 14.5299 17.6703C15.2203 17.1499 15.106 15.9803 14.8782 13.6402L14.835 13.2047Z" fill="url(#paint0_linear_463_1689)"/>
<path opacity="0.5" d="M6.43861 3.04744L6.14341 3.57323C5.81941 4.15088 5.6574 4.43971 5.4054 4.63017C5.4414 4.60335 5.4747 4.57473 5.5071 4.54344C5.29556 5.78281 5.39671 7.05495 5.80149 8.24595C6.20628 9.43695 6.90206 10.5096 7.82652 11.3678C8.75097 12.2261 9.87525 12.8431 11.0986 13.1637C12.322 13.4842 13.6064 13.4983 14.8366 13.2047L14.8186 13.0348C14.7547 12.3704 14.7223 12.0377 14.8186 11.7292C14.9149 11.4216 15.1291 11.1721 15.5584 10.6741L15.949 10.2207C17.4583 8.46808 18.2125 7.59087 17.9488 6.74943C17.686 5.90799 16.579 5.6585 14.365 5.16133L13.7926 5.03256C13.1635 4.89128 12.8485 4.82064 12.5956 4.63017C12.3436 4.43971 12.1816 4.15088 11.8576 3.57323L11.5633 3.04744C10.4229 1.01581 9.85324 0 9.00094 0C8.14863 0 7.57892 1.01581 6.43861 3.04744Z" fill="url(#paint1_linear_463_1689)"/>
<defs>
<linearGradient id="paint0_linear_463_1689" x1="7.52707" y1="4.54346" x2="7.52707" y2="17.8841" gradientUnits="userSpaceOnUse">
<stop stop-color="#58E1FF"/>
<stop offset="1" stop-color="#727DCD"/>
</linearGradient>
<linearGradient id="paint1_linear_463_1689" x1="11.7" y1="-8.28982e-09" x2="11.9962" y2="13.91" gradientUnits="userSpaceOnUse">
<stop stop-color="#727DCD"/>
<stop offset="0.791667" stop-color="#58E1FF"/>
</linearGradient>
</defs>
</svg>
