<svg width="25" height="22" viewBox="0 0 25 22" fill="none" xmlns="http://www.w3.org/2000/svg">
<path d="M13.1495 1.91041C12.9821 1.75432 12.7552 1.66665 12.5187 1.66665C12.2822 1.66665 12.0553 1.75432 11.8879 1.91041L1.54554 11.5679C1.46383 11.6498 1.36528 11.7155 1.25579 11.7611C1.1463 11.8066 1.0281 11.8311 0.908246 11.8331C0.788395 11.8351 0.669347 11.8145 0.558201 11.7726C0.447055 11.7306 0.34609 11.6682 0.261329 11.5891C0.176569 11.5099 0.109748 11.4157 0.064854 11.3119C0.0199605 11.2081 -0.00208572 11.0969 2.89143e-05 10.985C0.00214355 10.8731 0.0283756 10.7627 0.0771621 10.6605C0.125949 10.5582 0.196288 10.4662 0.283986 10.3899L10.6252 0.732393C10.8738 0.500196 11.169 0.316007 11.4939 0.190343C11.8188 0.0646786 12.167 0 12.5187 0C12.8704 0 13.2186 0.0646786 13.5435 0.190343C13.8684 0.316007 14.1636 0.500196 14.4122 0.732393L24.7546 10.3899C24.9171 10.5472 25.007 10.7578 25.0048 10.9763C25.0027 11.1949 24.9087 11.4039 24.7431 11.5583C24.5776 11.7128 24.3536 11.8004 24.1196 11.8022C23.8856 11.8039 23.6601 11.7198 23.4919 11.5679L13.1495 1.91041Z" fill="url(#paint0_linear_463_1001)"/>
<path d="M12.5182 3.67863C12.5182 3.67885 12.5181 3.67907 12.5179 3.67922L2.80779 12.7464V12.7464C2.74084 12.8089 2.69948 12.8948 2.69948 12.9864V19.73C2.69948 20.8803 3.69921 21.8138 4.93101 21.8138H8.94776C9.18449 21.8138 9.41153 21.726 9.57893 21.5696C9.74632 21.4133 9.84037 21.2013 9.84037 20.9803V15.9793C9.84037 15.7582 9.93441 15.5462 10.1018 15.3899C10.2692 15.2336 10.4962 15.1458 10.733 15.1458H14.3034C14.5402 15.1458 14.7672 15.2336 14.9346 15.3899C15.102 15.5462 15.196 15.7582 15.196 15.9793V20.9803C15.196 21.2013 15.2901 21.4133 15.4575 21.5696C15.6249 21.726 15.8519 21.8138 16.0886 21.8138H20.1054C20.6972 21.8138 21.2648 21.5942 21.6833 21.2035C22.1018 20.8127 22.3369 20.2827 22.3369 19.73V12.9864C22.3369 12.8949 22.2956 12.8088 22.2286 12.7464V12.7464L12.5196 3.67803C12.519 3.67755 12.5182 3.67792 12.5182 3.67863V3.67863Z" fill="url(#paint1_linear_463_1001)"/>
<defs>
<linearGradient id="paint0_linear_463_1001" x1="18.7536" y1="-2.51457" x2="-4.99049" y2="-0.990997" gradientUnits="userSpaceOnUse">
<stop stop-color="#727DCD"/>
<stop offset="1" stop-color="#58E1FF"/>
</linearGradient>
<linearGradient id="paint1_linear_463_1001" x1="17.4276" y1="-0.177376" x2="-1.27622" y2="0.437561" gradientUnits="userSpaceOnUse">
<stop stop-color="#727DCD"/>
<stop offset="1" stop-color="#58E1FF"/>
</linearGradient>
</defs>
</svg>
