<svg width="22" height="20" viewBox="0 0 22 20" fill="none" xmlns="http://www.w3.org/2000/svg">
<path d="M10.7593 7.90102C8.4302 7.90102 6.54208 6.13231 6.54208 3.95051C6.54208 1.7687 8.4302 0 10.7593 0C13.0884 0 14.9766 1.7687 14.9766 3.95051C14.9766 6.13231 13.0884 7.90102 10.7593 7.90102Z" fill="white"/>
<path d="M0.309195 17.2609C0.74665 15.3951 1.74974 13.6873 3.19801 12.3425C3.54951 12.0121 3.93044 11.7103 4.33666 11.4405C6.1866 10.1406 8.44145 9.44654 10.7539 9.46521C13.5815 9.45165 16.3001 10.4859 18.3168 12.3425C19.7651 13.6873 20.7682 15.3951 21.2056 17.2609C21.2817 17.5908 21.2776 17.9325 21.1936 18.2607C21.1097 18.589 20.948 18.8953 20.7206 19.1571C20.4852 19.4246 20.1886 19.6391 19.8529 19.785C19.5172 19.9308 19.1508 20.0043 18.7807 19.9999H2.72708C2.35594 20.0001 1.9895 19.9221 1.65491 19.7717C1.32032 19.6212 1.02614 19.4022 0.794178 19.1308C0.570882 18.872 0.411577 18.5701 0.327719 18.2468C0.243861 17.9235 0.237534 17.5868 0.309195 17.2609Z" fill="white"/>
</svg>
