<svg width="23" height="24" viewBox="0 0 23 24" fill="none" xmlns="http://www.w3.org/2000/svg">
<path d="M11.5 0C5.14855 0 -1.14441e-06 5.37213 -1.14441e-06 11.9994C-1.14441e-06 18.6267 5.14855 23.9988 11.5 23.9988C13.3354 24.0014 15.1445 23.5438 16.775 22.6645L21.1749 23.9448C21.4204 24.0163 21.6797 24.0184 21.9262 23.9509C22.1727 23.8834 22.3976 23.7487 22.5778 23.5607C22.758 23.3726 22.8871 23.138 22.9518 22.8808C23.0165 22.6236 23.0144 22.353 22.9459 22.0969L21.7177 17.5095C22.5626 15.8067 23.0024 13.9168 23 11.9994C23 5.37213 17.8514 0 11.5 0ZM11.5 1.79991C14.0925 1.79991 16.5788 2.8745 18.412 4.78727C20.2451 6.70004 21.275 9.29432 21.275 11.9994C21.275 13.7633 20.846 15.4588 20.041 16.9635L19.8685 17.2875L21.1473 22.0681L16.5623 20.7338L16.2518 20.9137C14.9473 21.6705 13.4939 22.1056 12.0033 22.1855C10.5127 22.2653 9.02427 21.988 7.65228 21.3746C6.28029 20.7613 5.06114 19.8283 4.08831 18.6471C3.11548 17.4659 2.41481 16.0679 2.04003 14.5604C1.66525 13.0529 1.62631 11.4758 1.92621 9.95013C2.2261 8.42446 2.85686 6.99071 3.77011 5.75883C4.68337 4.52695 5.85486 3.52965 7.19476 2.84341C8.53466 2.15716 10.0074 1.80021 11.5 1.79991Z" fill="white"/>
</svg>
