<svg width="24" height="25" viewBox="0 0 24 25" fill="none" xmlns="http://www.w3.org/2000/svg">
<path d="M21.0002 21.1501L16.6572 16.8071M16.6572 16.8071C17.4001 16.0642 17.9894 15.1823 18.3914 14.2117C18.7935 13.241 19.0004 12.2007 19.0004 11.1501C19.0004 10.0995 18.7935 9.05919 18.3914 8.08856C17.9894 7.11793 17.4001 6.236 16.6572 5.49311C15.9143 4.75022 15.0324 4.16093 14.0618 3.75888C13.0911 3.35683 12.0508 3.1499 11.0002 3.1499C9.9496 3.1499 8.90929 3.35683 7.93866 3.75888C6.96803 4.16093 6.08609 4.75022 5.34321 5.49311C3.84288 6.99344 3 9.02832 3 11.1501C3 13.2719 3.84288 15.3068 5.34321 16.8071C6.84354 18.3074 8.87842 19.1503 11.0002 19.1503C13.122 19.1503 15.1569 18.3074 16.6572 16.8071Z" stroke="white" stroke-opacity="0.6" stroke-width="1.5" stroke-linecap="round" stroke-linejoin="round"/>
</svg>
