<svg width="52" height="19" viewBox="0 0 52 19" fill="none" xmlns="http://www.w3.org/2000/svg">
<g clip-path="url(#clip0_463_1544)">
<path d="M36.8595 5.12781C38.289 5.12781 39.3937 5.48536 40.2385 6.20047C41.0832 6.91548 41.473 7.86893 41.473 9.06071V14.7812H39.6536V13.4704H39.5886C38.8089 14.5431 37.7042 15.0793 36.4046 15.0793C35.2999 15.0793 34.3253 14.7813 33.5456 14.1855C32.8308 13.5896 32.3759 12.7554 32.3759 11.8615C32.3759 10.9081 32.7659 10.1334 33.5456 9.53748C34.3253 8.94159 35.4299 8.70325 36.7295 8.70325C37.8991 8.70325 38.8089 8.88208 39.5236 9.29914V8.88208C39.5236 8.32586 39.2972 7.76974 38.8444 7.40734L38.7438 7.33274C38.224 6.91558 37.5742 6.67724 36.8595 6.67724C35.7548 6.67724 34.9101 7.0944 34.3253 7.92863L32.6359 6.975C33.6755 5.72361 35.04 5.12781 36.8595 5.12781ZM27.6974 1.07578C28.8633 1.07578 29.9714 1.44786 30.8573 2.14173L31.0114 2.26747C31.9211 2.98258 32.3759 4.05524 32.3759 5.18741C32.3759 6.31959 31.9211 7.33264 31.0114 8.10727C30.1016 8.88198 28.997 9.29905 27.6974 9.29905L24.5784 9.23944V14.7813H22.6289V1.07568L27.6974 1.07578ZM37.1193 10.1334C36.3396 10.1334 35.6898 10.3121 35.17 10.6697C34.6501 10.9676 34.3903 11.3847 34.3903 11.921C34.3903 12.3977 34.6503 12.8148 35.04 13.0532C35.4949 13.3512 36.0147 13.5299 36.5346 13.5299C37.2623 13.5299 37.9901 13.2703 38.5594 12.7997L38.6789 12.6957C39.3287 12.1594 39.6536 11.5039 39.6536 10.7888C39.0688 10.3717 38.224 10.1333 37.1194 10.1333L37.1193 10.1334ZM27.8274 2.74424H24.5784V7.51147H27.8274C28.5421 7.51147 29.2569 7.27313 29.7118 6.79645C30.7514 5.90262 30.7514 4.41288 29.7768 3.51895L29.7118 3.45935C29.1919 2.98267 28.5421 2.68472 27.8273 2.74433L27.8274 2.74424ZM51.9998 5.42575L45.5668 18.9525H43.6174L46.0216 14.245L41.7979 5.48536H43.8773L46.9313 12.2189H46.9963L49.9854 5.48536H51.9998V5.42575Z" fill="white"/>
<path d="M16.846 8.04782C16.846 7.51153 16.781 6.97525 16.716 6.43896H8.59375V9.47803H13.2072C13.0123 10.4314 12.4275 11.3252 11.5178 11.8616V13.828H14.3119C15.9364 12.4575 16.8461 10.4314 16.8461 8.04791L16.846 8.04782Z" fill="#4285F4"/>
<path d="M8.59334 15.735C10.9325 15.735 12.8819 15.0199 14.3115 13.8281L11.5174 11.8617C10.7376 12.3383 9.76294 12.6363 8.59334 12.6363C6.38395 12.6363 4.43456 11.2658 3.78477 9.35889H0.925781V11.3849C2.42027 14.0664 5.34436 15.735 8.59334 15.735Z" fill="#34A853"/>
<path d="M3.78501 9.35854C3.39521 8.40509 3.39521 7.33253 3.78501 6.31947V4.29346H0.926022C-0.308674 6.4983 -0.308674 9.1202 0.926022 11.3846L3.78501 9.35854Z" fill="#FBBC04"/>
<path d="M8.59387 3.10187C9.82847 3.10187 10.9981 3.51904 11.9079 4.29366L14.377 2.02931C12.8175 0.718306 10.7382 -0.0563163 8.65877 0.00319838C5.40979 0.00319838 2.4208 1.67175 0.991211 4.35327L3.8503 6.37928C4.43509 4.47239 6.38448 3.10187 8.59387 3.10187Z" fill="#EA4335"/>
</g>
<defs>
<clipPath id="clip0_463_1544">
<rect width="52" height="19" fill="white"/>
</clipPath>
</defs>
</svg>
