<svg width="45" height="15" viewBox="0 0 45 15" fill="none" xmlns="http://www.w3.org/2000/svg">
<g clip-path="url(#clip0_463_1552)">
<path d="M23.2729 4.77609C23.2472 6.85729 25.077 8.01862 26.4553 8.70916C27.8713 9.41759 28.347 9.87193 28.3414 10.5055C28.3308 11.4751 27.2118 11.9031 26.1647 11.9197C24.3378 11.9488 23.2755 11.4126 22.4311 11.007L21.773 14.1731C22.6202 14.5745 24.1891 14.9246 25.8159 14.9399C29.6348 14.9399 32.1332 13.0019 32.1467 9.99699C32.1616 6.18338 27.016 5.97229 27.0512 4.26771C27.0633 3.75084 27.543 3.19928 28.5942 3.05904C29.1145 2.98819 30.5508 2.93398 32.1792 3.70494L32.8184 0.641689C31.9426 0.313858 30.8171 -5.85208e-05 29.4158 -5.85208e-05C25.8214 -5.85208e-05 23.2933 1.9644 23.2729 4.77609ZM38.9598 0.263797C38.2625 0.263797 37.6748 0.681989 37.4126 1.32374L31.9576 14.7149H35.7736L36.533 12.5573H41.1961L41.6366 14.7149H45L42.065 0.263797H38.9598ZM39.4937 4.16759L40.5949 9.59416H37.5789L39.4937 4.16759ZM18.6462 0.263977L15.6382 14.7148H19.2746L22.2812 0.263616H18.6462M13.2667 0.263616L9.48182 10.0998L7.95076 1.73651C7.77111 0.802894 7.06166 0.263797 6.27381 0.263797H0.0866602L0 0.683435C1.2702 0.966809 2.71336 1.42386 3.5877 1.91289C4.12277 2.21163 4.27535 2.47277 4.45113 3.18265L7.351 14.7149H11.1938L17.0852 0.263797L13.2667 0.263616Z" fill="url(#paint0_linear_463_1552)"/>
</g>
<defs>
<linearGradient id="paint0_linear_463_1552" x1="2068.83" y1="44.9096" x2="2113.29" y2="-1489.38" gradientUnits="userSpaceOnUse">
<stop stop-color="#5E60DD"/>
<stop offset="1" stop-color="#254AA5"/>
</linearGradient>
<clipPath id="clip0_463_1552">
<rect width="45" height="15" fill="white"/>
</clipPath>
</defs>
</svg>
