<svg width="39" height="40" viewBox="0 0 39 40" fill="none" xmlns="http://www.w3.org/2000/svg">
<path fill-rule="evenodd" clip-rule="evenodd" d="M19.5 3.3335H9.75C8.45707 3.3335 7.21709 3.86028 6.30285 4.79796C5.38861 5.73564 4.875 7.00741 4.875 8.3335V31.6668C4.875 32.9929 5.38861 34.2647 6.30285 35.2024C7.21709 36.14 8.45707 36.6668 9.75 36.6668H29.25C30.5429 36.6668 31.7829 36.14 32.6971 35.2024C33.6114 34.2647 34.125 32.9929 34.125 31.6668V18.3335H24.375C23.0821 18.3335 21.8421 17.8067 20.9279 16.869C20.0136 15.9313 19.5 14.6596 19.5 13.3335V3.3335ZM34.125 15.0002V14.7135C34.1243 13.3881 33.6105 12.1172 32.6966 11.1802L26.4761 4.79683C25.5618 3.85969 24.3221 3.33334 23.0295 3.3335H22.75V13.3335C22.75 13.7755 22.9212 14.1994 23.226 14.512C23.5307 14.8246 23.944 15.0002 24.375 15.0002H34.125Z" fill="url(#paint0_linear_463_1614)"/>
<defs>
<linearGradient id="paint0_linear_463_1614" x1="19.5" y1="3.3335" x2="19.5" y2="36.6668" gradientUnits="userSpaceOnUse">
<stop stop-color="#727DCD"/>
<stop offset="1" stop-color="#58E1FF"/>
</linearGradient>
</defs>
</svg>
