<svg width="32" height="32" viewBox="0 0 32 32" fill="none" xmlns="http://www.w3.org/2000/svg">
<path fill-rule="evenodd" clip-rule="evenodd" d="M16 2.6665H8C6.93913 2.6665 5.92172 3.08793 5.17157 3.83808C4.42143 4.58822 4 5.60564 4 6.6665V25.3332C4 26.394 4.42143 27.4115 5.17157 28.1616C5.92172 28.9117 6.93913 29.3332 8 29.3332H24C25.0609 29.3332 26.0783 28.9117 26.8284 28.1616C27.5786 27.4115 28 26.394 28 25.3332V14.6665H20C18.9391 14.6665 17.9217 14.2451 17.1716 13.4949C16.4214 12.7448 16 11.7274 16 10.6665V2.6665ZM28 11.9998V11.7705C27.9994 10.7102 27.5779 9.69348 26.828 8.94384L21.724 3.83717C20.9738 3.08746 19.9566 2.66638 18.896 2.6665H18.6667V10.6665C18.6667 11.0201 18.8071 11.3593 19.0572 11.6093C19.3072 11.8594 19.6464 11.9998 20 11.9998H28Z" fill="url(#paint0_linear_463_1693)"/>
<defs>
<linearGradient id="paint0_linear_463_1693" x1="16" y1="2.6665" x2="16" y2="29.3332" gradientUnits="userSpaceOnUse">
<stop stop-color="#727DCD"/>
<stop offset="1" stop-color="#58E1FF"/>
</linearGradient>
</defs>
</svg>
