<svg width="26" height="24" viewBox="0 0 26 24" fill="none" xmlns="http://www.w3.org/2000/svg">
<mask id="mask0_463_993" style="mask-type:luminance" maskUnits="userSpaceOnUse" x="0" y="0" width="26" height="24">
<path d="M1.00488 9.10498H24.26V21.8418C24.26 22.1489 24.1311 22.4434 23.9015 22.6606C23.672 22.8777 23.3607 22.9997 23.0361 22.9997H2.22884C1.90422 22.9997 1.59291 22.8777 1.36337 22.6606C1.13383 22.4434 1.00488 22.1489 1.00488 21.8418V9.10498Z" fill="white" stroke="white" stroke-width="2" stroke-linejoin="round"/>
<path d="M1.00488 3.89471C1.00488 3.58762 1.13383 3.2931 1.36337 3.07596C1.59291 2.85881 1.90422 2.73682 2.22884 2.73682H23.0361C23.3607 2.73682 23.672 2.85881 23.9015 3.07596C24.1311 3.2931 24.26 3.58762 24.26 3.89471V9.10524H1.00488V3.89471Z" stroke="white" stroke-width="2" stroke-linejoin="round"/>
<path d="M7.73633 16.0528L11.4082 19.5265L18.7519 12.5791" stroke="black" stroke-width="2" stroke-linecap="round" stroke-linejoin="round"/>
<path d="M7.73633 1V5.63158M17.528 1V5.63158" stroke="white" stroke-width="2" stroke-linecap="round"/>
</mask>
<g mask="url(#mask0_463_993)">
<path d="M-2.05469 -1.89502H27.3202V25.8945H-2.05469V-1.89502Z" fill="white"/>
</g>
</svg>
