<svg width="36" height="30" viewBox="0 0 36 30" fill="none" xmlns="http://www.w3.org/2000/svg">
<path d="M27.9681 23.75H7.55143V10H27.9681M23.5931 1.25V3.75H11.9264V1.25H9.00977V3.75H7.55143C5.94727 3.75 4.63477 4.875 4.63477 6.25V23.75C4.63477 24.413 4.94206 25.0489 5.48904 25.5178C6.03602 25.9866 6.77788 26.25 7.55143 26.25H27.9681C29.5868 26.25 30.8848 25.1375 30.8848 23.75V6.25C30.8848 5.58696 30.5775 4.95107 30.0305 4.48223C29.4835 4.01339 28.7416 3.75 27.9681 3.75H26.5098V1.25M16.1264 15H10.8618L15.1202 17.6375L13.5014 21.95L17.7598 19.2875L22.0181 21.95L20.3848 17.65L24.6431 15H19.3931L17.7598 10.7L16.1264 15Z" fill="white"/>
</svg>
