<svg width="24" height="22" viewBox="0 0 24 22" fill="none" xmlns="http://www.w3.org/2000/svg">
<g clip-path="url(#clip0_463_1619)">
<path fill-rule="evenodd" clip-rule="evenodd" d="M12.5006 18.3335C15.1496 18.3335 17.2616 16.1518 16.9736 13.7502C16.947 13.5278 17.009 13.3041 17.1484 13.1204C17.2877 12.9367 17.4949 12.8055 17.7316 12.751C18.4387 12.5849 19.0555 12.1884 19.4667 11.6355C19.8779 11.0827 20.0553 10.4115 19.9657 9.7475C19.8761 9.08348 19.5257 8.47212 18.9799 8.02781C18.4342 7.58349 17.7305 7.33667 17.0006 7.3335H16.0006C15.7354 7.3335 15.4811 7.23692 15.2935 7.06501C15.106 6.8931 15.0006 6.65995 15.0006 6.41683C15.0006 6.17372 15.106 5.94056 15.2935 5.76865C15.4811 5.59674 15.7354 5.50016 16.0006 5.50016H17.0006C18.1499 5.49947 19.2644 5.86174 20.1564 6.52599C21.0485 7.19024 21.6637 8.11591 21.8985 9.14721C22.1332 10.1785 21.9733 11.2525 21.4455 12.1883C20.9177 13.1242 20.0543 13.8648 19.0006 14.2855C18.9826 15.6752 18.4351 17.0154 17.4529 18.0742C16.4708 19.133 15.1157 19.8438 13.6223 20.0835C12.1288 20.3233 10.5909 20.0769 9.27473 19.387C7.95852 18.6972 6.94679 17.6072 6.41463 16.3058C5.01533 15.9521 3.80328 15.1455 3.00298 14.0354C2.20267 12.9254 1.86833 11.5871 2.06188 10.2684C2.25543 8.94967 2.96376 7.73995 4.05567 6.86326C5.14758 5.98657 6.5491 5.5023 8.00063 5.50016C8.26585 5.50016 8.5202 5.59674 8.70774 5.76865C8.89527 5.94056 9.00063 6.17372 9.00063 6.41683C9.00063 6.65995 8.89527 6.8931 8.70774 7.06501C8.5202 7.23692 8.26585 7.3335 8.00063 7.3335C6.9956 7.33211 6.02683 7.67758 5.28704 8.30118C4.54725 8.92478 4.09067 9.78081 4.00811 10.699C3.92556 11.6171 4.22308 12.5301 4.8415 13.2564C5.45992 13.9826 6.35392 14.4688 7.34563 14.6182C7.53659 14.6472 7.71446 14.7258 7.85806 14.8448C8.00166 14.9637 8.10495 15.118 8.15563 15.2892C8.4149 16.1635 8.98083 16.9353 9.76608 17.4854C10.5513 18.0356 11.5123 18.3336 12.5006 18.3335ZM11.0006 10.6188L9.70763 9.4345C9.61465 9.34939 9.5043 9.2819 9.38287 9.23589C9.26144 9.18988 9.13132 9.16624 8.99992 9.16632C8.86853 9.16641 8.73844 9.19021 8.61708 9.23638C8.49572 9.28256 8.38547 9.35019 8.29263 9.43541C8.19979 9.52064 8.12616 9.6218 8.07597 9.73311C8.02577 9.84442 7.99998 9.9637 8.00007 10.0841C8.00017 10.2046 8.02614 10.3238 8.07651 10.4351C8.12688 10.5463 8.20065 10.6474 8.29363 10.7325L11.1176 13.3166C11.352 13.531 11.6695 13.6514 12.0006 13.6514C12.3317 13.6514 12.6493 13.531 12.8836 13.3166L15.7076 10.7316C15.8953 10.5597 16.0007 10.3265 16.0008 10.0834C16.0009 9.8402 15.8956 9.60696 15.7081 9.43496C15.5206 9.26295 15.2663 9.16627 15.001 9.16619C14.7357 9.1661 14.4813 9.26261 14.2936 9.4345L13.0006 10.6188V2.75016C13.0006 2.50705 12.8953 2.27389 12.7077 2.10198C12.5202 1.93007 12.2658 1.8335 12.0006 1.8335C11.7354 1.8335 11.4811 1.93007 11.2935 2.10198C11.106 2.27389 11.0006 2.50705 11.0006 2.75016V10.6188Z" fill="white"/>
</g>
<defs>
<clipPath id="clip0_463_1619">
<rect width="24" height="22" fill="white" transform="matrix(-1 0 0 -1 24 22)"/>
</clipPath>
</defs>
</svg>
