<svg width="22" height="22" viewBox="0 0 22 22" fill="none" xmlns="http://www.w3.org/2000/svg">
<path d="M10.3991 2.84509C10.5783 2.92738 10.7302 3.05933 10.8367 3.22529C10.9432 3.39125 10.9999 3.58427 11 3.78146V18.219C10.9996 18.416 10.9428 18.6088 10.8363 18.7746C10.7299 18.9403 10.5782 19.0722 10.3992 19.1546C10.2203 19.237 10.0215 19.2665 9.8263 19.2396C9.63113 19.2127 9.44773 19.1305 9.29775 19.0027L4.774 15.1252H2.40625C1.76807 15.1252 1.15603 14.8717 0.704774 14.4204C0.253515 13.9692 0 13.3571 0 12.719L0 9.28146C0 7.95321 1.078 6.87521 2.40625 6.87521H4.77538L9.29775 2.99771C9.44756 2.8697 9.63092 2.7873 9.82611 2.76025C10.0213 2.7332 10.2201 2.76264 10.3991 2.84509ZM8.9375 6.02271L5.82725 8.68884C5.64059 8.84945 5.4025 8.93776 5.15625 8.93771H2.40625C2.31508 8.93771 2.22765 8.97393 2.16318 9.03839C2.09872 9.10286 2.0625 9.19029 2.0625 9.28146V12.719C2.0625 12.9087 2.2165 13.0627 2.40625 13.0627H5.15625C5.40238 13.0627 5.64025 13.1507 5.82725 13.3102L8.9375 15.9777V6.02271ZM17.3195 3.22046C17.5129 3.02734 17.775 2.91887 18.0483 2.91887C18.3215 2.91887 18.5836 3.02734 18.777 3.22046C19.7985 4.24191 20.6088 5.45457 21.1616 6.78919C21.7145 8.12381 21.999 9.55425 21.999 10.9988C21.999 12.4434 21.7145 13.8739 21.1616 15.2085C20.6088 16.5431 19.7985 17.7558 18.777 18.7772C18.5814 18.9593 18.3228 19.0584 18.0556 19.0538C17.7884 19.0492 17.5335 18.9412 17.3443 18.7525C17.1555 18.5633 17.0475 18.3083 17.0429 18.0411C17.0383 17.7739 17.1374 17.5153 17.3195 17.3197C18.1495 16.4898 18.808 15.5045 19.2572 14.42C19.7064 13.3356 19.9377 12.1733 19.9377 10.9995C19.9377 9.82574 19.7064 8.66344 19.2572 7.57902C18.808 6.49459 18.1495 5.50928 17.3195 4.67934C17.1264 4.48598 17.0179 4.22387 17.0179 3.95059C17.0179 3.67731 17.1264 3.41382 17.3195 3.22046ZM15.862 6.13684L15.8606 6.13821C17.1495 7.42747 17.8735 9.17583 17.8735 10.9988C17.8735 12.8218 17.1495 14.5702 15.8606 15.8595C15.7346 15.9952 15.5742 16.0944 15.3965 16.1467C15.2188 16.199 15.0303 16.2024 14.8508 16.1565C14.6713 16.1106 14.5076 16.0171 14.3768 15.886C14.2459 15.7548 14.1529 15.5908 14.1075 15.4112C14.0616 15.2319 14.0648 15.0436 14.1168 14.866C14.1688 14.6884 14.2677 14.5281 14.4031 14.402C14.8501 13.9551 15.2046 13.4245 15.4465 12.8406C15.6884 12.2567 15.8128 11.6309 15.8128 10.9988C15.8128 10.3668 15.6884 9.74097 15.4465 9.15706C15.2046 8.57315 14.8501 8.0426 14.4031 7.59571C14.2097 7.40225 14.101 7.13987 14.101 6.86628C14.101 6.59268 14.2097 6.3303 14.4031 6.13684C14.5966 5.94338 14.859 5.8347 15.1326 5.8347C15.4062 5.8347 15.6685 5.94338 15.862 6.13684Z" fill="white"/>
</svg>
