<svg width="19" height="20" viewBox="0 0 19 20" fill="none" xmlns="http://www.w3.org/2000/svg">
<path d="M15.885 10.5693C15.8741 8.92994 16.714 7.69441 18.4102 6.78339C17.4615 5.58151 16.0263 4.92048 14.1345 4.79308C12.3432 4.66809 10.3834 5.71612 9.66581 5.71612C8.90744 5.71612 7.17325 4.83635 5.80873 4.83635C2.9927 4.87481 0 6.82185 0 10.7832C0 11.9539 0.241917 13.163 0.725751 14.4081C1.37268 16.0475 3.70486 20.0641 6.13762 19.9992C7.40973 19.9728 8.30944 19.2012 9.96481 19.2012C11.5712 19.2012 12.403 19.9992 13.8219 19.9992C16.2764 19.968 18.3857 16.3167 19 14.6725C15.7083 13.3 15.885 10.6534 15.885 10.5693ZM13.0282 3.23785C14.4063 1.7908 14.2813 0.473539 14.2405 0C13.0227 0.0624976 11.6147 0.733145 10.8129 1.55763C9.92947 2.44221 9.4103 3.53592 9.52175 4.76905C10.8373 4.85798 12.0388 4.25945 13.0282 3.23785Z" fill="white"/>
</svg>
