<svg width="33" height="52" viewBox="0 0 33 52" fill="none" xmlns="http://www.w3.org/2000/svg">
<path d="M7.32481 41.9598L18.0319 51.9485L28.0205 41.2414L19.8716 41.5243L19.5631 32.6381C22.9037 32.0624 26.0974 30.4234 28.5883 27.7533C34.6564 21.2488 34.3026 11.0562 27.798 4.98809C21.2935 -1.08 11.1009 -0.726182 5.03281 5.77834C-1.03528 12.2829 -0.681463 22.4755 5.82306 28.5436C8.49313 31.0345 11.7927 32.4481 15.1653 32.7908L15.4737 41.677L7.32481 41.9598ZM5.10457 17.1722C4.99591 14.042 6.10985 11.0636 8.24492 8.77493C10.38 6.4863 13.274 5.16851 16.4042 5.05985C19.5344 4.95119 22.5128 6.06513 24.8014 8.2002C27.0901 10.3353 28.4079 13.2293 28.5165 16.3595C28.6252 19.4897 27.5112 22.4681 25.3762 24.7567C23.2411 27.0454 20.3471 28.3632 17.2169 28.4718C14.0867 28.5805 11.1083 27.4665 8.81965 25.3315C6.53102 23.1964 5.21323 20.3024 5.10457 17.1722Z" fill="white"/>
</svg>
