<svg width="16" height="17" viewBox="0 0 16 17" fill="none" xmlns="http://www.w3.org/2000/svg">
<path d="M3.8 11.8333V9.33333M8 3.5V1M12.2 11.8333V9.33333M6.6 11V14.3333C6.6 14.7754 6.4525 15.1993 6.18995 15.5118C5.9274 15.8244 5.5713 16 5.2 16H2.4C2.0287 16 1.6726 15.8244 1.41005 15.5118C1.1475 15.1993 1 14.7754 1 14.3333V11C1 10.558 1.1475 10.134 1.41005 9.82149C1.6726 9.50893 2.0287 9.33333 2.4 9.33333H5.2C5.5713 9.33333 5.9274 9.50893 6.18995 9.82149C6.4525 10.134 6.6 10.558 6.6 11ZM10.8 2.66667V6C10.8 6.44203 10.6525 6.86595 10.3899 7.17851C10.1274 7.49107 9.7713 7.66667 9.4 7.66667H6.6C6.2287 7.66667 5.8726 7.49107 5.61005 7.17851C5.3475 6.86595 5.2 6.44203 5.2 6V2.66667C5.2 2.22464 5.3475 1.80072 5.61005 1.48816C5.8726 1.17559 6.2287 1 6.6 1H9.4C9.7713 1 10.1274 1.17559 10.3899 1.48816C10.6525 1.80072 10.8 2.22464 10.8 2.66667ZM15 11V14.3333C15 14.7754 14.8525 15.1993 14.5899 15.5118C14.3274 15.8244 13.9713 16 13.6 16H10.8C10.4287 16 10.0726 15.8244 9.81005 15.5118C9.5475 15.1993 9.4 14.7754 9.4 14.3333V11C9.4 10.558 9.5475 10.134 9.81005 9.82149C10.0726 9.50893 10.4287 9.33333 10.8 9.33333H13.6C13.9713 9.33333 14.3274 9.50893 14.5899 9.82149C14.8525 10.134 15 10.558 15 11Z" stroke="#E6A201" stroke-width="1.5" stroke-linecap="round" stroke-linejoin="round"/>
</svg>
