<svg width="14" height="15" viewBox="0 0 14 15" fill="none" xmlns="http://www.w3.org/2000/svg">
<path d="M12 13.5H1.5V5.25H12M9.75 0V1.5H3.75V0H2.25V1.5H1.5C0.675 1.5 0 2.175 0 3V13.5C0 13.8978 0.158035 14.2794 0.43934 14.5607C0.720644 14.842 1.10218 15 1.5 15H12C12.8325 15 13.5 14.3325 13.5 13.5V3C13.5 2.60218 13.342 2.22064 13.0607 1.93934C12.7794 1.65804 12.3978 1.5 12 1.5H11.25V0M5.91 8.25H3.2025L5.3925 9.8325L4.56 12.42L6.75 10.8225L8.94 12.42L8.1 9.84L10.29 8.25H7.59L6.75 5.67L5.91 8.25Z" fill="#E6A201"/>
</svg>
