<svg width="17" height="17" viewBox="0 0 17 17" fill="none" xmlns="http://www.w3.org/2000/svg">
<path d="M0.898041 5.48339C0.246362 5.69851 0.155012 6.5808 0.746723 6.93885L5.07316 9.55193C5.18183 9.61766 5.30707 9.65022 5.43333 9.64555C5.55959 9.64087 5.6813 9.59918 5.78334 9.52565L10.98 5.77471C11.1299 5.66578 11.3166 5.85882 11.2031 6.00552L7.27977 11.0723C7.20285 11.1718 7.15709 11.292 7.14818 11.4181C7.13927 11.5441 7.1676 11.6704 7.22965 11.7812L9.69725 16.1953C10.0348 16.7982 10.9196 16.7366 11.157 16.0929L16.4542 1.72374C16.6883 1.08963 16.0787 0.459231 15.4366 0.671364L0.898041 5.48339Z" fill="white"/>
</svg>
