<svg width="52" height="19" viewBox="0 0 52 19" fill="none" xmlns="http://www.w3.org/2000/svg">
<path d="M9.50139 2.44956C8.89202 3.09126 7.91681 3.59757 6.94171 3.52517C6.81984 2.65753 7.29718 1.73547 7.85588 1.16599C8.46525 0.506217 9.53186 0.0361519 10.3952 0C10.4968 0.903888 10.1006 1.7897 9.50139 2.44956ZM10.3851 3.69699C8.97316 3.62468 7.76447 4.41099 7.09406 4.41099C6.41359 4.41099 5.3876 3.73314 4.27032 3.75121C2.81787 3.76929 1.46689 4.50137 0.725379 5.66745C-0.798261 7.99952 0.329285 11.4525 1.80204 13.3506C2.52324 14.2907 3.38662 15.3211 4.52422 15.2849C5.60099 15.2488 6.02755 14.6613 7.32775 14.6613C8.63801 14.6613 9.01389 15.2849 10.1515 15.2669C11.3297 15.2488 12.0712 14.3269 12.7924 13.3868C13.6151 12.3202 13.9503 11.2807 13.9706 11.2264C13.9503 11.2084 11.6954 10.4401 11.6751 8.12605C11.6548 6.19174 13.4527 5.26977 13.5339 5.21555C12.5181 3.87774 10.9336 3.73314 10.3851 3.69699ZM18.5416 1.07561V15.1675H20.9996V10.3498H24.4023C27.5104 10.3498 29.6943 8.45159 29.6943 5.70369C29.6943 2.95587 27.5511 1.0757 24.4836 1.0757L18.5416 1.07561ZM20.9996 2.91963H23.8335C25.9666 2.91963 27.1854 3.93197 27.1854 5.71264C27.1854 7.4933 25.9666 8.51477 23.8233 8.51477H20.9996V2.91963ZM34.1839 15.2759C35.7279 15.2759 37.16 14.58 37.8101 13.4772H37.8609V15.1674H40.1362V8.15316C40.1362 6.11943 38.3079 4.80875 35.4942 4.80875C32.8837 4.80875 30.9538 6.13751 30.8827 7.96336H33.0971C33.2799 7.09563 34.1838 6.52614 35.4231 6.52614C36.9264 6.52614 37.7695 7.14985 37.7695 8.29786V9.07513L34.7019 9.23781C31.8477 9.39145 30.3038 10.431 30.3038 12.2389C30.3038 14.0647 31.8985 15.2759 34.1839 15.2759ZM34.8441 13.6037C33.5339 13.6037 32.7009 13.0433 32.7009 12.1846C32.7009 11.2988 33.5033 10.7836 35.0371 10.7022L37.7695 10.5486V11.3439C37.7695 12.6637 36.5099 13.6037 34.8441 13.6037ZM43.1732 19C45.5704 19 46.6978 18.1866 47.6831 15.7189L52 4.94432H49.5013L46.6064 13.2692H46.5556L43.6608 4.94432H41.091L45.2554 15.2036L45.032 15.8273C44.6562 16.8848 44.0467 17.2916 42.9599 17.2916C42.767 17.2916 42.3912 17.2736 42.2387 17.2555V18.9458C42.3809 18.9819 42.9903 19 43.1732 19Z" fill="white"/>
</svg>
