<svg width="18" height="18" viewBox="0 0 18 18" fill="none" xmlns="http://www.w3.org/2000/svg">
<path d="M2.075 9.42857H5C5.18333 9.42857 5.35833 9.468 5.525 9.54686C5.69167 9.62571 5.81667 9.74343 5.9 9.9L7 11.7857L10.1 6.47143C10.2833 6.14286 10.5833 5.97857 11 5.97857C11.4167 5.97857 11.7167 6.14286 11.9 6.47143L13.625 9.42857H15.925C15.675 7.97143 14.9 6.75 13.6 5.76429C12.3 4.77857 10.7667 4.28571 9 4.28571C7.23333 4.28571 5.7 4.77857 4.4 5.76429C3.1 6.75 2.325 7.97143 2.075 9.42857ZM9 16.2857C10.7667 16.2857 12.3 15.7929 13.6 14.8071C14.9 13.8214 15.675 12.6 15.925 11.1429H13C12.8167 11.1429 12.6417 11.1034 12.475 11.0246C12.3083 10.9457 12.1833 10.828 12.1 10.6714L11 8.78571L7.9 14.1C7.71667 14.4286 7.41667 14.5929 7 14.5929C6.58333 14.5929 6.28333 14.4286 6.1 14.1L4.375 11.1429H2.075C2.325 12.6 3.1 13.8214 4.4 14.8071C5.7 15.7929 7.23333 16.2857 9 16.2857ZM9 18C7.76667 18 6.604 17.7963 5.512 17.3889C4.42 16.9814 3.466 16.428 2.65 15.7286C1.83333 15.0286 1.18733 14.2106 0.712001 13.2746C0.236668 12.3386 -0.000665266 11.3423 1.40056e-06 10.2857H2C2 11.9429 2.68333 13.3571 4.05 14.5286C5.41667 15.7 7.06667 16.2857 9 16.2857C10.9333 16.2857 12.5833 15.7 13.95 14.5286C15.3167 13.3571 16 11.9429 16 10.2857H18C18 11.3429 17.7623 12.3394 17.287 13.2754C16.8117 14.2114 16.166 15.0291 15.35 15.7286C14.5333 16.4286 13.579 16.9823 12.487 17.3897C11.395 17.7971 10.2327 18.0006 9 18ZM1.40056e-06 10.2857C1.40056e-06 9.22857 0.237668 8.232 0.713001 7.296C1.18833 6.36 1.834 5.54229 2.65 4.84286C3.46667 4.14286 4.421 3.58914 5.513 3.18171C6.605 2.77429 7.76733 2.57086 9 2.57143C10.0333 2.57143 11.025 2.71429 11.975 3C12.925 3.28571 13.8167 3.7 14.65 4.24286L16.05 3.04286L17.45 4.24286L16.05 5.44286C16.6833 6.15714 17.1667 6.92143 17.5 7.73571C17.8333 8.55 18 9.4 18 10.2857H16C16 8.62857 15.3167 7.21429 13.95 6.04286C12.5833 4.87143 10.9333 4.28571 9 4.28571C7.06667 4.28571 5.41667 4.87143 4.05 6.04286C2.68333 7.21429 2 8.62857 2 10.2857H1.40056e-06ZM6 1.71429V0H12V1.71429H6ZM9 16.2857C7.06667 16.2857 5.41667 15.7 4.05 14.5286C2.68333 13.3571 2 11.9429 2 10.2857C2 8.62857 2.68333 7.21429 4.05 6.04286C5.41667 4.87143 7.06667 4.28571 9 4.28571C10.9333 4.28571 12.5833 4.87143 13.95 6.04286C15.3167 7.21429 16 8.62857 16 10.2857C16 11.9429 15.3167 13.3571 13.95 14.5286C12.5833 15.7 10.9333 16.2857 9 16.2857Z" fill="white"/>
</svg>
