<svg width="18" height="17" viewBox="0 0 18 17" fill="none" xmlns="http://www.w3.org/2000/svg">
<path fill-rule="evenodd" clip-rule="evenodd" d="M2 0C2.53043 0 3.03914 0.223884 3.41421 0.622398C3.78929 1.02091 4 1.56141 4 2.125V14.875C4 15.4386 3.78929 15.9791 3.41421 16.3776C3.03914 16.7761 2.53043 17 2 17C1.46957 17 0.96086 16.7761 0.585787 16.3776C0.210714 15.9791 0 15.4386 0 14.875V2.125C0 1.56141 0.210714 1.02091 0.585787 0.622398C0.96086 0.223884 1.46957 0 2 0ZM18 15.861L6 8.5L18 1.139V15.861Z" fill="white"/>
</svg>
