<svg width="18" height="17" viewBox="0 0 18 17" fill="none" xmlns="http://www.w3.org/2000/svg">
<path fill-rule="evenodd" clip-rule="evenodd" d="M16 0C15.4696 0 14.9609 0.223884 14.5858 0.622398C14.2107 1.02091 14 1.56141 14 2.125V14.875C14 15.4386 14.2107 15.9791 14.5858 16.3776C14.9609 16.7761 15.4696 17 16 17C16.5304 17 17.0391 16.7761 17.4142 16.3776C17.7893 15.9791 18 15.4386 18 14.875V2.125C18 1.56141 17.7893 1.02091 17.4142 0.622398C17.0391 0.223884 16.5304 0 16 0ZM0 15.861L12 8.5L0 1.139V15.861Z" fill="white"/>
</svg>
