<svg width="12" height="17" viewBox="0 0 12 17" fill="none" xmlns="http://www.w3.org/2000/svg">
<path d="M3.33333 9.68682C3.14444 9.68682 2.986 9.60933 2.858 9.45434C2.73 9.29935 2.66622 9.10777 2.66667 8.87959C2.66667 8.65087 2.73067 8.45902 2.85867 8.30403C2.98667 8.14904 3.14489 8.07182 3.33333 8.07235C3.52222 8.07235 3.68067 8.14985 3.80867 8.30484C3.93667 8.45983 4.00044 8.65141 4 8.87959C4 9.10831 3.936 9.30016 3.808 9.45515C3.68 9.61014 3.52178 9.68736 3.33333 9.68682ZM6 9.68682C5.81111 9.68682 5.65267 9.60933 5.52467 9.45434C5.39667 9.29935 5.33289 9.10777 5.33333 8.87959C5.33333 8.65087 5.39733 8.45902 5.52533 8.30403C5.65333 8.14904 5.81156 8.07182 6 8.07235C6.18889 8.07235 6.34733 8.14985 6.47533 8.30484C6.60333 8.45983 6.66711 8.65141 6.66667 8.87959C6.66667 9.10831 6.60267 9.30016 6.47467 9.45515C6.34667 9.61014 6.18844 9.68736 6 9.68682ZM8.66667 9.68682C8.47778 9.68682 8.31933 9.60933 8.19133 9.45434C8.06333 9.29935 7.99955 9.10777 8 8.87959C8 8.65087 8.064 8.45902 8.192 8.30403C8.32 8.14904 8.47822 8.07182 8.66667 8.07235C8.85555 8.07235 9.014 8.14985 9.142 8.30484C9.27 8.45983 9.33378 8.65141 9.33333 8.87959C9.33333 9.10831 9.26933 9.30016 9.14133 9.45515C9.01333 9.61014 8.85511 9.68736 8.66667 9.68682ZM1.33333 16.1447C0.966668 16.1447 0.652668 15.9865 0.391334 15.6701C0.130001 15.3536 -0.000443312 14.9737 1.13186e-06 14.5302V3.22894C1.13186e-06 2.78496 0.130668 2.40475 0.392001 2.08832C0.653334 1.77188 0.967112 1.61393 1.33333 1.61447H2V0H3.33333V1.61447H8.66667V0H10V1.61447H10.6667C11.0333 1.61447 11.3473 1.77269 11.6087 2.08912C11.87 2.40556 12.0004 2.7855 12 3.22894V14.5302C12 14.9742 11.8693 15.3544 11.608 15.6709C11.3467 15.9873 11.0329 16.1452 10.6667 16.1447H1.33333ZM1.33333 14.5302H10.6667V6.45788H1.33333V14.5302ZM1.33333 4.84341H10.6667V3.22894H1.33333V4.84341Z" fill="white"/>
</svg>
