<svg width="18" height="18" viewBox="0 0 18 18" fill="none" xmlns="http://www.w3.org/2000/svg">
<path d="M7.26923 2.89286V3.21429H10.7308V2.89286C10.7308 2.46662 10.5484 2.05783 10.2238 1.75644C9.89926 1.45504 9.45903 1.28571 9 1.28571C8.54097 1.28571 8.10074 1.45504 7.77616 1.75644C7.45158 2.05783 7.26923 2.46662 7.26923 2.89286ZM5.88462 3.21429V2.89286C5.88462 2.12562 6.21284 1.38981 6.79709 0.847298C7.38134 0.304782 8.17375 0 9 0C9.82625 0 10.6187 0.304782 11.2029 0.847298C11.7872 1.38981 12.1154 2.12562 12.1154 2.89286V3.21429H17.3077C17.4913 3.21429 17.6674 3.28202 17.7972 3.40257C17.9271 3.52313 18 3.68665 18 3.85714C18 4.02764 17.9271 4.19115 17.7972 4.31171C17.6674 4.43227 17.4913 4.5 17.3077 4.5H16.2637L14.9538 15.1509C14.8573 15.9353 14.4531 16.6592 13.8186 17.1847C13.184 17.7102 12.3633 18.0004 11.5131 18H6.48692C5.63667 18.0004 4.81602 17.7102 4.18144 17.1847C3.54685 16.6592 3.14274 15.9353 3.04615 15.1509L1.73631 4.5H0.692308C0.508696 4.5 0.332605 4.43227 0.202772 4.31171C0.0729393 4.19115 0 4.02764 0 3.85714C0 3.68665 0.0729393 3.52313 0.202772 3.40257C0.332605 3.28202 0.508696 3.21429 0.692308 3.21429H5.88462ZM4.42246 15.0043C4.48026 15.4748 4.72248 15.9091 5.10295 16.2245C5.48342 16.5398 5.97554 16.7142 6.48554 16.7143H11.5138C12.0238 16.7142 12.5159 16.5398 12.8964 16.2245C13.2768 15.9091 13.519 15.4748 13.5768 15.0043L14.8708 4.5H3.12992L4.42246 15.0043ZM6.92308 6.75C7.10669 6.75 7.28278 6.81773 7.41261 6.93829C7.54245 7.05885 7.61538 7.22236 7.61538 7.39286V13.8214C7.61538 13.9919 7.54245 14.1554 7.41261 14.276C7.28278 14.3966 7.10669 14.4643 6.92308 14.4643C6.73947 14.4643 6.56337 14.3966 6.43354 14.276C6.30371 14.1554 6.23077 13.9919 6.23077 13.8214V7.39286C6.23077 7.22236 6.30371 7.05885 6.43354 6.93829C6.56337 6.81773 6.73947 6.75 6.92308 6.75ZM11.7692 7.39286C11.7692 7.22236 11.6963 7.05885 11.5665 6.93829C11.4366 6.81773 11.2605 6.75 11.0769 6.75C10.8933 6.75 10.7172 6.81773 10.5874 6.93829C10.4576 7.05885 10.3846 7.22236 10.3846 7.39286V13.8214C10.3846 13.9919 10.4576 14.1554 10.5874 14.276C10.7172 14.3966 10.8933 14.4643 11.0769 14.4643C11.2605 14.4643 11.4366 14.3966 11.5665 14.276C11.6963 14.1554 11.7692 13.9919 11.7692 13.8214V7.39286Z" fill="#FF2B2B"/>
</svg>
