<svg width="41" height="42" viewBox="0 0 41 42" fill="none" xmlns="http://www.w3.org/2000/svg">
<path d="M41 15.6116V0.96875H26.3571L32.1228 6.73438L25.8355 13.0217C23.1357 10.9717 19.7587 9.75446 16.1071 9.75446C7.21161 9.75446 0 16.9661 0 25.8616C0 34.7571 7.21161 41.9688 16.1071 41.9688C25.0027 41.9688 32.2143 34.7571 32.2143 25.8616C32.2143 22.21 30.9971 18.833 28.9471 16.1333L35.2344 9.84598L41 15.6116ZM24.3895 34.144C22.1748 36.3587 19.2371 37.5759 16.1071 37.5759C12.9772 37.5759 10.0395 36.3587 7.82478 34.144C5.61004 31.9292 4.39286 28.9915 4.39286 25.8616C4.39286 22.7317 5.61004 19.794 7.82478 17.5792C10.0395 15.3645 12.9772 14.1473 16.1071 14.1473C19.2371 14.1473 22.1748 15.3645 24.3895 17.5792C26.6042 19.794 27.8214 22.7317 27.8214 25.8616C27.8214 28.9915 26.6042 31.9292 24.3895 34.144Z" fill="white"/>
</svg>
