<svg width="22" height="19" viewBox="0 0 22 19" fill="none" xmlns="http://www.w3.org/2000/svg">
<path d="M15.5833 4.51988C15.5833 6.57642 12.7913 10.2413 11.5653 11.7517C11.2712 12.1133 10.725 12.1133 10.4347 11.7517C9.20868 10.2413 6.41667 6.57642 6.41667 4.51988C6.41667 2.02265 8.46771 0 11 0C13.5323 0 15.5833 2.02265 15.5833 4.51988ZM15.8889 7.5482C16.0226 7.2883 16.1448 7.02841 16.2556 6.77229C16.2747 6.72709 16.2938 6.67812 16.3128 6.63292L20.7434 4.88524C21.3469 4.64794 22 5.08486 22 5.72518V15.925C22 16.2942 21.7708 16.6256 21.4233 16.765L15.8889 18.9458V7.5482ZM5.25556 5.20916C5.34722 5.74025 5.53056 6.2751 5.74444 6.77229C5.85521 7.02841 5.97743 7.2883 6.11111 7.5482V17.0173L1.2566 18.9345C0.653125 19.1718 0 18.7349 0 18.0946V7.89472C0 7.5256 0.229167 7.19414 0.576736 7.05478L5.25937 5.20916H5.25556ZM12.5201 12.505C13.051 11.8496 13.8837 10.7837 14.6667 9.60474V18.9948L7.33333 16.9269V9.60474C8.11632 10.7837 8.94896 11.8496 9.47986 12.505C10.2628 13.4692 11.7372 13.4692 12.5201 12.505ZM11 5.72518C11.4052 5.72518 11.7938 5.56645 12.0803 5.2839C12.3668 5.00135 12.5278 4.61814 12.5278 4.21855C12.5278 3.81897 12.3668 3.43576 12.0803 3.15321C11.7938 2.87066 11.4052 2.71193 11 2.71193C10.5948 2.71193 10.2062 2.87066 9.9197 3.15321C9.63318 3.43576 9.47222 3.81897 9.47222 4.21855C9.47222 4.61814 9.63318 5.00135 9.9197 5.2839C10.2062 5.56645 10.5948 5.72518 11 5.72518Z" fill="url(#paint0_linear_463_1712)"/>
<defs>
<linearGradient id="paint0_linear_463_1712" x1="11" y1="0" x2="11" y2="19" gradientUnits="userSpaceOnUse">
<stop stop-color="#58E1FF"/>
<stop offset="1" stop-color="#727DCD"/>
</linearGradient>
</defs>
</svg>
