<svg width="22" height="28" viewBox="0 0 22 28" fill="none" xmlns="http://www.w3.org/2000/svg">
<path fill-rule="evenodd" clip-rule="evenodd" d="M9.80862 0H12.1914C14.265 0 15.9077 0 17.1927 0.199256C18.515 0.405023 19.5856 0.837395 20.4307 1.81153C21.2746 2.78698 21.6491 4.02288 21.8274 5.54921C22 7.03386 22 8.92874 22 11.3224V16.6776C22 19.0713 22 20.9674 21.8274 22.4508C21.6491 23.9771 21.2746 25.213 20.4307 26.1885C19.5856 27.1626 18.515 27.595 17.1927 27.8007C15.9066 28 14.265 28 12.1914 28H9.80862C7.73497 28 6.09231 28 4.80728 27.8007C3.48503 27.595 2.41436 27.1626 1.56933 26.1885C0.725436 25.213 0.350872 23.9771 0.172616 22.4508C1.34493e-07 20.9661 0 19.0713 0 16.6776V11.3224C0 8.92874 1.34493e-07 7.03256 0.172616 5.54921C0.350872 4.02288 0.725436 2.78698 1.56933 1.81153C2.41436 0.837395 3.48503 0.405023 4.80728 0.199256C6.09344 0 7.73497 0 9.80862 0ZM5.0318 2.13581C3.89682 2.31163 3.24246 2.64242 2.7641 3.1933C2.288 3.74419 2.00144 4.49953 1.84913 5.80967C1.69344 7.14847 1.69118 8.91181 1.69118 11.3953V16.6047C1.69118 19.0882 1.69344 20.8528 1.84913 22.1916C2.00144 23.5005 2.288 24.2558 2.76523 24.8067C3.24246 25.3576 3.89682 25.6884 5.0318 25.8642C6.19159 26.0439 7.71918 26.0465 9.87067 26.0465H12.1271C14.2786 26.0465 15.8073 26.0439 16.9671 25.8642C18.1009 25.6884 18.7553 25.3576 19.2325 24.8067C19.7097 24.2558 19.9963 23.5005 20.1486 22.1903C20.3043 20.8528 20.3066 19.0882 20.3066 16.6047V11.3953C20.3066 8.91181 20.3043 7.14847 20.1486 5.80837C19.9963 4.49954 19.7097 3.74419 19.2325 3.1933C18.7553 2.64242 18.1009 2.31163 16.9659 2.13581C15.8073 1.95609 14.2786 1.95349 12.1271 1.95349H9.87067C7.71918 1.95349 6.19272 1.95609 5.0318 2.13581ZM5.64103 11.3953C5.64103 11.1363 5.73017 10.8879 5.88886 10.7047C6.04754 10.5215 6.26277 10.4186 6.48718 10.4186H15.5128C15.7372 10.4186 15.9525 10.5215 16.1111 10.7047C16.2698 10.8879 16.359 11.1363 16.359 11.3953C16.359 11.6544 16.2698 11.9028 16.1111 12.086C15.9525 12.2692 15.7372 12.3721 15.5128 12.3721H6.48718C6.26277 12.3721 6.04754 12.2692 5.88886 12.086C5.73017 11.9028 5.64103 11.6544 5.64103 11.3953ZM5.64103 16.6047C5.64103 16.3456 5.73017 16.0972 5.88886 15.914C6.04754 15.7308 6.26277 15.6279 6.48718 15.6279H12.1282C12.3526 15.6279 12.5678 15.7308 12.7265 15.914C12.8852 16.0972 12.9744 16.3456 12.9744 16.6047C12.9744 16.8637 12.8852 17.1121 12.7265 17.2953C12.5678 17.4785 12.3526 17.5814 12.1282 17.5814H6.48718C6.26277 17.5814 6.04754 17.4785 5.88886 17.2953C5.73017 17.1121 5.64103 16.8637 5.64103 16.6047Z" fill="white"/>
</svg>
