<svg width="17" height="18" viewBox="0 0 17 18" fill="none" xmlns="http://www.w3.org/2000/svg">
<path d="M6.33722 4.24299L7.55556 3.07333V13.5013C7.55556 13.7399 7.65506 13.9688 7.83218 14.1375C8.00929 14.3063 8.24952 14.401 8.5 14.401C8.75048 14.401 8.9907 14.3063 9.16782 14.1375C9.34494 13.9688 9.44444 13.7399 9.44444 13.5013V3.07333L10.6628 4.24299C10.7506 4.32732 10.855 4.39425 10.9701 4.43993C11.0852 4.48561 11.2087 4.50913 11.3333 4.50913C11.458 4.50913 11.5815 4.48561 11.6965 4.43993C11.8116 4.39425 11.9161 4.32732 12.0039 4.24299C12.0924 4.15935 12.1627 4.05983 12.2106 3.95019C12.2586 3.84055 12.2833 3.72295 12.2833 3.60417C12.2833 3.4854 12.2586 3.3678 12.2106 3.25815C12.1627 3.14851 12.0924 3.049 12.0039 2.96536L9.17056 0.266141C9.08276 0.18181 8.9783 0.114875 8.86321 0.0691962C8.74812 0.0235176 8.62468 0 8.5 0C8.37532 0 8.25188 0.0235176 8.13679 0.0691962C8.0217 0.114875 7.91724 0.18181 7.82944 0.266141L4.99611 2.96536C4.81827 3.13478 4.71836 3.36457 4.71836 3.60417C4.71836 3.84378 4.81827 4.07356 4.99611 4.24299C5.17395 4.41241 5.41516 4.50759 5.66667 4.50759C5.91817 4.50759 6.15938 4.41241 6.33722 4.24299ZM14.1667 6.30339H12.2778C12.0273 6.30339 11.7871 6.39818 11.61 6.56692C11.4328 6.73565 11.3333 6.9645 11.3333 7.20313C11.3333 7.44176 11.4328 7.67061 11.61 7.83934C11.7871 8.00808 12.0273 8.10287 12.2778 8.10287H14.1667C14.4171 8.10287 14.6574 8.19766 14.8345 8.3664C15.0116 8.53513 15.1111 8.76398 15.1111 9.00261V15.3008C15.1111 15.5394 15.0116 15.7683 14.8345 15.937C14.6574 16.1057 14.4171 16.2005 14.1667 16.2005H2.83333C2.58285 16.2005 2.34263 16.1057 2.16551 15.937C1.98839 15.7683 1.88889 15.5394 1.88889 15.3008V9.00261C1.88889 8.76398 1.98839 8.53513 2.16551 8.3664C2.34263 8.19766 2.58285 8.10287 2.83333 8.10287H4.72222C4.9727 8.10287 5.21293 8.00808 5.39004 7.83934C5.56716 7.67061 5.66667 7.44176 5.66667 7.20313C5.66667 6.9645 5.56716 6.73565 5.39004 6.56692C5.21293 6.39818 4.9727 6.30339 4.72222 6.30339H2.83333C2.08189 6.30339 1.36122 6.58777 0.829864 7.09397C0.298511 7.60017 0 8.28673 0 9.00261V15.3008C0 16.0167 0.298511 16.7032 0.829864 17.2094C1.36122 17.7156 2.08189 18 2.83333 18H14.1667C14.9181 18 15.6388 17.7156 16.1701 17.2094C16.7015 16.7032 17 16.0167 17 15.3008V9.00261C17 8.28673 16.7015 7.60017 16.1701 7.09397C15.6388 6.58777 14.9181 6.30339 14.1667 6.30339Z" fill="white"/>
</svg>
